<svg width="34" height="32" viewBox="0 0 34 32" fill="none" xmlns="http://www.w3.org/2000/svg">
<path fill-rule="evenodd" clip-rule="evenodd" d="M18.7332 6.33332C18.7332 6.14934 18.8825 6 19.0665 6C23.1101 6 26.3998 9.28968 26.3998 13.3333C26.3998 13.5173 26.2508 13.6666 26.0665 13.6666C25.8825 13.6666 25.7331 13.5173 25.7331 13.3333C25.7331 9.6573 22.7425 6.66664 19.0665 6.66664C18.8825 6.66664 18.7332 6.5173 18.7332 6.33332ZM18.7332 8.33332C18.7332 8.14934 18.8825 8 19.0665 8C22.0074 8 24.3998 10.3927 24.3998 13.3333C24.3998 13.5173 24.2508 13.6666 24.0665 13.6666C23.8825 13.6666 23.7331 13.5173 23.7331 13.3333C23.7331 10.76 21.6398 8.66664 19.0665 8.66664C18.8825 8.66664 18.7332 8.5173 18.7332 8.33332ZM19.0665 10C18.8825 10 18.7332 10.1493 18.7332 10.3333C18.7332 10.5173 18.8825 10.6666 19.0665 10.6666C20.5368 10.6666 21.7331 11.863 21.7331 13.3333C21.7331 13.5173 21.8825 13.6666 22.0665 13.6666C22.2508 13.6666 22.3998 13.5173 22.3998 13.3333C22.3998 11.4953 20.9044 10 19.0665 10ZM21.7797 17.8473C22.6364 18.1664 23.5308 18.389 24.4377 18.5084C25.5844 18.6697 26.4258 19.6597 26.3994 20.812V23.7183C26.4044 24.9706 25.3871 25.9946 24.1311 26H24.1247C24.0554 26 23.9864 25.997 23.9177 25.991C20.8834 25.662 17.9324 24.6143 15.3771 22.9603C13.0055 21.4563 10.9531 19.408 9.44446 17.0387C7.78278 14.4787 6.73278 11.5197 6.40977 8.48368C6.35442 7.87337 6.53911 7.28337 6.92876 6.81705C7.31844 6.35103 7.86676 6.06404 8.47247 6.00935C8.53977 6.00334 8.60778 6.00002 8.67579 6.00002H11.5921C12.7318 5.99568 13.7068 6.82935 13.8664 7.95536C13.9864 8.86372 14.2094 9.75606 14.5291 10.6114C14.8407 11.439 14.6394 12.3807 14.0161 13.0097L12.9618 14.0617C14.2674 16.2667 16.1131 18.1087 18.3224 19.4113L19.3761 18.36C20.0074 17.737 20.9501 17.5363 21.7797 17.8473ZM25.7327 20.8083V20.8C25.7531 19.984 25.1574 19.283 24.3474 19.169C23.3937 19.0437 22.45 18.8087 21.546 18.472C20.9587 18.252 20.291 18.3937 19.8454 18.8334L18.6121 20.064C18.506 20.1697 18.3427 20.1923 18.2121 20.118C15.7277 18.7084 13.6674 16.6523 12.2547 14.1723C12.1804 14.0417 12.2024 13.8777 12.3091 13.7713L13.5437 12.5393C13.9827 12.0963 14.1251 11.431 13.9047 10.8457C13.5671 9.94267 13.3321 9.00068 13.2057 8.04568C13.0941 7.25837 12.4098 6.6667 11.6111 6.6667H11.5951H8.67575C8.62778 6.6667 8.58008 6.66904 8.53243 6.67338C8.10376 6.71205 7.7161 6.91502 7.44044 7.2447C7.16477 7.57439 7.03442 7.99103 7.07309 8.41837C7.38477 11.3454 8.39875 14.2034 10.0051 16.678C11.4631 18.968 13.4444 20.9453 15.7364 22.399C18.2074 23.9983 21.0581 25.0103 23.9827 25.3276C24.0128 25.3304 24.0456 25.3313 24.08 25.3322H24.0801C24.096 25.3326 24.1123 25.333 24.1288 25.3337C25.0164 25.33 25.7361 24.606 25.7327 23.72V20.8083ZM11.4002 7.33337H8.67591C8.64791 7.33337 8.62025 7.3347 8.59259 7.33736C8.25295 7.36802 8.04525 7.56068 7.95193 7.67236C7.87693 7.76201 7.7056 8.00669 7.7356 8.34271C7.86162 9.52505 8.08959 10.6754 8.41392 11.762C8.45724 11.9064 8.58959 12 8.73326 12C8.76494 12 8.79693 11.9957 8.82892 11.9861C9.00525 11.9334 9.1056 11.7477 9.05291 11.5714C8.74025 10.5241 8.52025 9.41407 8.39924 8.27775C8.39158 8.1931 8.44658 8.12009 8.46357 8.09943C8.49091 8.06677 8.55189 8.01044 8.67591 8.00009H11.3996H11.3999C11.5839 8.00009 11.7333 7.85111 11.7333 7.66708C11.7336 7.48302 11.5842 7.33337 11.4002 7.33337ZM24.3999 20.9999C24.3999 20.816 24.5492 20.6666 24.7332 20.6666C24.9172 20.6666 25.0665 20.816 25.0665 20.9999L25.0662 23.7183C25.0672 23.9703 24.9699 24.2083 24.7922 24.3876C24.6145 24.5666 24.3779 24.6656 24.1256 24.6666C24.1176 24.6666 24.0619 24.6653 24.0345 24.6626C22.8492 24.5339 21.7082 24.3066 20.6379 23.9859C20.4615 23.9329 20.3612 23.7472 20.4142 23.5709C20.4672 23.3946 20.6535 23.2942 20.8292 23.3472C21.8609 23.6562 22.9615 23.8756 24.1005 23.9992L24.1312 23.9999C24.1972 23.9996 24.2665 23.9706 24.3188 23.9179C24.3712 23.8653 24.3999 23.7946 24.3995 23.7196L24.3999 20.9999Z" fill="#3D4E54"/>
</svg>
