<svg width="33" height="32" viewBox="0 0 33 32" fill="none" xmlns="http://www.w3.org/2000/svg">
<path d="M15.3394 16.0028L7.37183 24.026C7.15048 24.2489 7.15048 24.61 7.37183 24.8329C7.48237 24.9445 7.6275 25 7.77235 25C7.91748 25 8.06233 24.9445 8.17287 24.8329L16.2003 16.7493L24.2278 24.8329C24.3386 24.9445 24.4835 25 24.6283 25C24.7732 25 24.9183 24.9445 25.0288 24.8329C25.2502 24.61 25.2502 24.2489 25.0288 24.026L17.0616 16.0028L25.0342 7.97387C25.2555 7.75097 25.2555 7.38986 25.0342 7.16696C24.8128 6.94435 24.4542 6.94435 24.2331 7.16696L16.2006 15.2562L8.16724 7.16724C7.94589 6.94463 7.58756 6.94463 7.36621 7.16724C7.14486 7.39014 7.14486 7.75126 7.36621 7.97416L15.3394 16.0028Z" fill="#3D4E54"/>
</svg>
