<svg width="34" height="32" viewBox="0 0 34 32" fill="none" xmlns="http://www.w3.org/2000/svg">
<path fill-rule="evenodd" clip-rule="evenodd" d="M21.3107 19.9481H21.3098L21.3075 19.9479H10.5395C10.2744 19.9479 10.0413 19.7513 9.96842 19.4663L7.59275 10.1694C7.54155 9.96896 7.57743 9.75348 7.68957 9.58712C7.80186 9.42076 7.9774 9.32288 8.16378 9.32288H22.6805L23.105 7.18664C23.1655 6.88279 23.4065 6.66663 23.6849 6.66663H27.2484C27.5764 6.66663 27.8423 6.9639 27.8423 7.33069C27.8423 7.69748 27.5764 7.99475 27.2484 7.99475H24.1612L22.0169 18.7841C22.6481 19.0908 23.0909 19.7945 23.0909 20.612C23.0909 21.7104 22.2916 22.6042 21.3092 22.6042H20.1257C21.1061 22.6068 21.9031 23.4995 21.9031 24.5963C21.9031 25.6948 21.1038 26.5885 20.1214 26.5885C19.1389 26.5885 18.3396 25.6948 18.3396 24.5963C18.3396 23.4995 19.1366 22.6068 20.117 22.6042H11.7316C12.7121 22.6068 13.5091 23.4995 13.5091 24.5963C13.5091 25.6948 12.7098 26.5885 11.7273 26.5885C10.7449 26.5885 9.94556 25.6948 9.94556 24.5963C9.94556 23.4995 10.7425 22.6068 11.723 22.6042H10.5395C10.2114 22.6042 9.94553 22.3069 9.94553 21.9401C9.94553 21.5733 10.2114 21.276 10.5395 21.276H21.3092C21.6366 21.276 21.9031 20.9781 21.9031 20.612C21.9031 20.2464 21.6375 19.9489 21.3107 19.9481ZM8.95118 10.651L10.9875 18.6198H20.8328L22.4166 10.651H8.95118ZM20.1214 23.9323C19.7939 23.9323 19.5274 24.2302 19.5274 24.5963C19.5274 24.9624 19.7939 25.2604 20.1214 25.2604C20.4488 25.2604 20.7153 24.9624 20.7153 24.5963C20.7153 24.2302 20.4488 23.9323 20.1214 23.9323ZM11.1334 24.5963C11.1334 24.2302 11.3999 23.9323 11.7273 23.9323C12.0547 23.9323 12.3212 24.2302 12.3212 24.5963C12.3212 24.9624 12.0547 25.2604 11.7273 25.2604C11.3999 25.2604 11.1334 24.9624 11.1334 24.5963Z" fill="#3D4E54"/>
</svg>
