<svg width="34" height="32" viewBox="0 0 34 32" fill="none" xmlns="http://www.w3.org/2000/svg">
<path fill-rule="evenodd" clip-rule="evenodd" d="M27.4671 23.337C27.6163 23.1878 27.7001 22.9855 27.7001 22.7745V20.598C27.7 20.3872 27.6162 20.1848 27.467 20.0357C27.3179 19.8866 27.1155 19.8027 26.9047 19.8026H25.9273V19.7229C25.9251 17.6911 25.2745 15.7131 24.0702 14.0766C22.9116 12.5023 21.2987 11.3232 19.4512 10.6962C19.4443 10.3143 19.3657 9.93695 19.2194 9.58378C19.0661 9.21357 18.8413 8.87718 18.5579 8.59382C18.2746 8.31047 17.9382 8.0857 17.568 7.93235C17.1978 7.779 16.801 7.70007 16.4002 7.70007C15.9995 7.70007 15.6027 7.779 15.2325 7.93235C14.8623 8.0857 14.5259 8.31047 14.2425 8.59382C13.9592 8.87718 13.7344 9.21357 13.5811 9.58378C13.4348 9.93695 13.3562 10.3143 13.3493 10.6962C11.5017 11.3232 9.8888 12.5023 8.73014 14.0766C7.5258 15.713 6.87514 17.6914 6.87287 19.7233V19.8026H5.89535C5.68447 19.8027 5.48227 19.8866 5.33316 20.0357C5.18404 20.1848 5.10022 20.3872 5.1001 20.598V22.7745C5.1001 22.9855 5.1839 23.1878 5.33307 23.337C5.48225 23.4861 5.68457 23.5699 5.89552 23.5699H26.9047C27.1156 23.5699 27.318 23.4861 27.4671 23.337ZM25.6273 19.7232C25.6273 19.7232 25.6273 19.7232 25.6273 19.7232V20.1025L25.6273 19.7233C25.6273 19.7232 25.6273 19.7232 25.6273 19.7232ZM27.4001 20.5979C27.4001 20.5979 27.4001 20.598 27.4001 20.598V22.7744C27.4001 22.9058 27.3479 23.0318 27.255 23.1248C27.1621 23.2177 27.0361 23.2699 26.9047 23.2699H5.89551C5.76412 23.2699 5.6381 23.2177 5.54519 23.1248C5.47553 23.0551 5.42875 22.9668 5.40971 22.8716C5.42874 22.9668 5.47552 23.0551 5.5452 23.1248C5.63811 23.2177 5.76413 23.2699 5.89552 23.2699H26.9047C27.0361 23.2699 27.1621 23.2177 27.255 23.1248C27.3479 23.0319 27.4001 22.9059 27.4001 22.7745V20.598C27.4001 20.598 27.4001 20.598 27.4001 20.5979ZM19.1436 10.5404C19.149 10.6105 19.1517 10.6809 19.1517 10.7515C19.1517 10.786 19.1489 10.8209 19.1461 10.8559C19.1446 10.8742 19.1431 10.8925 19.1421 10.9108C19.1421 10.9108 19.1421 10.9108 19.1421 10.9108C19.1431 10.8926 19.1446 10.8743 19.1461 10.856C19.1489 10.821 19.1517 10.7861 19.1517 10.7515C19.1517 10.681 19.149 10.6105 19.1436 10.5404ZM16.4001 9.29092C16.7743 9.29192 17.1339 9.43643 17.4047 9.69469C17.5806 9.86239 17.7103 10.0697 17.7848 10.2969C16.8662 10.1611 15.9325 10.1611 15.0139 10.2969C15.0884 10.0695 15.2183 9.86192 15.3945 9.69413C15.6656 9.43583 16.0256 9.2915 16.4001 9.29092ZM17.6118 9.47758C17.8613 9.7155 18.0338 10.0196 18.1113 10.3509C18.1173 10.3765 18.1227 10.4023 18.1276 10.4282C18.0599 10.067 17.8806 9.73382 17.6118 9.47751C17.2852 9.16608 16.8515 8.99189 16.4002 8.99085C15.9486 8.99138 15.5145 9.16536 15.1875 9.47685C14.8606 9.78833 14.6657 10.2135 14.6433 10.6645C14.6433 10.6645 14.6433 10.6645 14.6433 10.6645C14.6486 10.5582 14.6635 10.4533 14.6874 10.3509C14.765 10.0193 14.9377 9.71493 15.1876 9.47692C15.5145 9.16544 15.9487 8.99146 16.4002 8.99092C16.8515 8.99196 17.2852 9.16616 17.6118 9.47758ZM8.46372 19.7233C8.46372 17.6184 9.29989 15.5997 10.7883 14.1113C12.2767 12.6229 14.2953 11.7867 16.4002 11.7867C18.5051 11.7867 20.5238 12.6229 22.0122 14.1113C23.5006 15.5997 24.3368 17.6184 24.3368 19.7233V19.8026H8.46372V19.7233ZM26.1092 21.9791V21.3935H6.69095V21.9791H26.1092ZM8.16372 19.7233C8.16372 17.5388 9.0315 15.4438 10.5761 13.8992C12.1208 12.3545 14.2158 11.4867 16.4002 11.4867C18.5847 11.4867 20.6797 12.3545 22.2243 13.8992C23.1053 14.7801 23.766 15.84 24.1712 16.9935C23.766 15.84 23.1053 14.78 22.2243 13.8991C20.6797 12.3544 18.5847 11.4867 16.4002 11.4867C14.2158 11.4867 12.1208 12.3544 10.5761 13.8991C9.03148 15.4437 8.16371 17.5387 8.16371 19.7232V20.1025H8.16372V19.7233ZM6.39095 22.279V21.0935H26.4092L26.4092 21.0934H6.39094V22.279H6.39095Z" fill="#3D4E54"/>
</svg>
