<svg width="34" height="32" viewBox="0 0 34 32" fill="none" xmlns="http://www.w3.org/2000/svg">
<path d="M24.4213 19.9633C23.8349 19.9633 23.2778 20.193 22.8575 20.6084C22.4372 21.0287 22.2026 21.5761 22.2026 22.1625C22.2026 22.7489 22.4323 23.2963 22.8575 23.7166C23.2826 24.1319 23.8349 24.3616 24.4213 24.3616C25.6235 24.3616 26.6009 23.3745 26.6009 22.1625C26.6009 20.9505 25.6235 19.9633 24.4213 19.9633ZM24.4213 23.3842C23.7469 23.3842 23.18 22.8271 23.18 22.1625C23.18 21.4979 23.7469 20.9407 24.4213 20.9407C25.0859 20.9407 25.6235 21.4881 25.6235 22.1625C25.6235 22.8369 25.0859 23.3842 24.4213 23.3842ZM24.9882 12.6377C24.9002 12.5547 24.7829 12.5107 24.6608 12.5107H22.1537C21.885 12.5107 21.665 12.7306 21.665 12.9994V17.0067C21.665 17.2755 21.885 17.4954 22.1537 17.4954H26.1318C26.4005 17.4954 26.6205 17.2755 26.6205 17.0067V14.3238C26.6205 14.1869 26.5618 14.055 26.4592 13.9621L24.9882 12.6377ZM25.6431 16.518H22.6424V13.4832H24.4702L25.6431 14.5388V16.518ZM12.4873 19.9633C11.9008 19.9633 11.3437 20.193 10.9234 20.6084C10.5032 21.0287 10.2686 21.5761 10.2686 22.1625C10.2686 22.7489 10.4983 23.2963 10.9234 23.7166C11.3486 24.1319 11.9008 24.3616 12.4873 24.3616C13.6895 24.3616 14.6669 23.3745 14.6669 22.1625C14.6669 20.9505 13.6895 19.9633 12.4873 19.9633ZM12.4873 23.3842C11.8129 23.3842 11.246 22.8271 11.246 22.1625C11.246 21.4979 11.8129 20.9407 12.4873 20.9407C13.1519 20.9407 13.6895 21.4881 13.6895 22.1625C13.6895 22.8369 13.1519 23.3842 12.4873 23.3842ZM9.22766 20.5644H8.24538V19.2645C8.24538 18.9957 8.02546 18.7758 7.75668 18.7758C7.48789 18.7758 7.26798 18.9957 7.26798 19.2645V21.0531C7.26798 21.3219 7.48789 21.5418 7.75668 21.5418H9.22766C9.49644 21.5418 9.71636 21.3219 9.71636 21.0531C9.71636 20.7844 9.49644 20.5644 9.22766 20.5644ZM11.7054 17.901C11.7054 17.6323 11.4854 17.4123 11.2167 17.4123H5.28875C5.01996 17.4123 4.80005 17.6323 4.80005 17.901C4.80005 18.1698 5.01996 18.3897 5.28875 18.3897H11.2167C11.4854 18.3897 11.7054 18.1747 11.7054 17.901ZM6.28081 16.1368L12.2087 16.171C12.4775 16.171 12.6974 15.956 12.7023 15.6872C12.7072 15.4136 12.4873 15.1936 12.2185 15.1936L6.29058 15.1594C6.28569 15.1594 6.28569 15.1594 6.28569 15.1594C6.01691 15.1594 5.79699 15.3745 5.79699 15.6432C5.79211 15.9169 6.01202 16.1368 6.28081 16.1368ZM7.27775 13.9181H13.2057C13.4745 13.9181 13.6944 13.6982 13.6944 13.4294C13.6944 13.1607 13.4745 12.9407 13.2057 12.9407H7.27775C7.00897 12.9407 6.78905 13.1607 6.78905 13.4294C6.78905 13.6982 7.00897 13.9181 7.27775 13.9181ZM28.6192 13.2584L25.1201 10.3604C25.0322 10.2871 24.9247 10.248 24.8074 10.248H20.6925V8.4887C20.6925 8.21991 20.4726 8 20.2038 8H7.75668C7.48789 8 7.26798 8.21991 7.26798 8.4887V12.066C7.26798 12.3348 7.48789 12.5547 7.75668 12.5547C8.02546 12.5547 8.24538 12.3348 8.24538 12.066V8.9774H19.72V20.5644H15.7127C15.4439 20.5644 15.224 20.7844 15.224 21.0531C15.224 21.3219 15.4439 21.5418 15.7127 21.5418H21.6797C21.9485 21.5418 22.1684 21.3219 22.1684 21.0531C22.1684 20.7844 21.9485 20.5644 21.6797 20.5644H20.6974V11.2254H24.6363L27.8227 13.8644L27.7884 20.5547H27.2802C27.0114 20.5547 26.7915 20.7746 26.7915 21.0434C26.7915 21.3122 27.0114 21.5321 27.2802 21.5321H28.2723C28.541 21.5321 28.761 21.317 28.761 21.0483L28.8 13.6396C28.7952 13.493 28.7316 13.3513 28.6192 13.2584Z" fill="#3D4E54"/>
</svg>
