<svg width="33" height="32" viewBox="0 0 33 32" fill="none" xmlns="http://www.w3.org/2000/svg">
<path fill-rule="evenodd" clip-rule="evenodd" d="M25.5993 8.9753H27.0449C27.1407 8.9753 27.2326 9.01338 27.3004 9.08115C27.3682 9.14893 27.4062 9.24085 27.4062 9.33669V10.7823C27.4062 10.8781 27.3682 10.97 27.3004 11.0378C27.2326 11.1056 27.1407 11.1436 27.0449 11.1436H25.5993C25.5034 11.1436 25.4115 11.1056 25.3438 11.0378C25.276 10.97 25.2379 10.8781 25.2379 10.7823V10.4177C25.2229 10.4197 25.2078 10.4207 25.1927 10.4209H19.2063C19.7138 10.7665 20.1623 11.1918 20.5344 11.6803C21.3805 12.7713 21.895 14.1382 21.9741 15.4803H22.3468C22.4426 15.4803 22.5345 15.5184 22.6023 15.5862C22.6701 15.654 22.7082 15.7459 22.7082 15.8417V17.2873C22.7082 17.3831 22.6701 17.4751 22.6023 17.5428C22.5345 17.6106 22.4426 17.6487 22.3468 17.6487H20.9012C20.8054 17.6487 20.7134 17.6106 20.6457 17.5428C20.5779 17.4751 20.5398 17.3831 20.5398 17.2873V15.8417C20.5398 15.7459 20.5779 15.654 20.6457 15.5862C20.7134 15.5184 20.8054 15.4803 20.9012 15.4803H21.25C21.1691 14.3058 20.7006 13.0744 19.9629 12.1235C19.2049 11.1455 18.2658 10.5591 17.2873 10.443V10.7823C17.2873 10.8781 17.2492 10.97 17.1814 11.0378C17.1137 11.1056 17.0218 11.1436 16.9259 11.1436H15.4803C15.3845 11.1436 15.2926 11.1056 15.2248 11.0378C15.157 10.97 15.119 10.8781 15.119 10.7823V10.4444C13.2054 10.6869 11.1436 12.8006 11.1436 15.4803H11.505C11.6009 15.4803 11.6928 15.5184 11.7606 15.5862C11.8284 15.654 11.8664 15.7459 11.8664 15.8417V17.2873C11.8664 17.3831 11.8284 17.4751 11.7606 17.5428C11.6928 17.6106 11.6009 17.6487 11.505 17.6487H10.0595C9.96363 17.6487 9.87171 17.6106 9.80393 17.5428C9.73616 17.4751 9.69808 17.3831 9.69808 17.2873V15.8417C9.69808 15.7459 9.73616 15.654 9.80393 15.5862C9.87171 15.5184 9.96363 15.4803 10.0595 15.4803H10.4209C10.4209 14.1161 10.9521 12.6895 11.8786 11.566C12.2397 11.1225 12.6661 10.7364 13.143 10.4209H7.16835V10.7823C7.16835 10.8781 7.13027 10.97 7.0625 11.0378C6.99472 11.1056 6.9028 11.1436 6.80696 11.1436H5.36139C5.26554 11.1436 5.17362 11.1056 5.10585 11.0378C5.03808 10.97 5 10.8781 5 10.7823V9.33669C5 9.24085 5.03808 9.14893 5.10585 9.08115C5.17362 9.01338 5.26554 8.9753 5.36139 8.9753H6.80696C6.9028 8.9753 6.99472 9.01338 7.0625 9.08115C7.13027 9.14893 7.16835 9.24085 7.16835 9.33669V9.69808H15.119V9.33669C15.119 9.24085 15.157 9.14893 15.2248 9.08115C15.2926 9.01338 15.3845 8.9753 15.4803 8.9753H15.8417V7.16835H15.4803C15.3845 7.16835 15.2926 7.13027 15.2248 7.0625C15.157 6.99472 15.119 6.9028 15.119 6.80696V5.36139C15.119 5.26554 15.157 5.17362 15.2248 5.10585C15.2926 5.03808 15.3845 5 15.4803 5H16.9259C17.0218 5 17.1137 5.03808 17.1814 5.10585C17.2492 5.17362 17.2873 5.26554 17.2873 5.36139V6.80696C17.2873 6.9028 17.2492 6.99472 17.1814 7.0625C17.1137 7.13027 17.0218 7.16835 16.9259 7.16835H16.5645V8.9753H16.9259C17.0218 8.9753 17.1137 9.01338 17.1814 9.08115C17.2492 9.14893 17.2873 9.24085 17.2873 9.33669V9.69808H25.1927C25.2078 9.69822 25.2229 9.69928 25.2379 9.70125V9.33669C25.2379 9.24085 25.276 9.14893 25.3438 9.08115C25.4115 9.01338 25.5034 8.9753 25.5993 8.9753ZM5.72278 10.4209H6.44556V9.69808H5.72278V10.4209ZM10.4209 16.9259H11.1436V16.2031H10.4209V16.9259ZM16.5645 5.72278H15.8417V6.44556H16.5645V5.72278ZM15.8417 10.4209H16.5645V9.69808H15.8417V10.4209ZM21.9854 16.2031H21.2626V16.9259H21.9854V16.2031ZM25.9607 10.4209H26.6835V9.69808H25.9607V10.4209ZM16.5004 13.4678L19.753 18.1659C19.7849 18.212 19.8056 18.2649 19.8135 18.3205C19.8215 18.376 19.8163 18.4326 19.7986 18.4858L18.873 21.2626H19.0943C19.1902 21.2626 19.2821 21.3007 19.3499 21.3684C19.4176 21.4362 19.4557 21.5281 19.4557 21.624V22.7082C19.4557 22.804 19.4176 22.8959 19.3499 22.9637C19.2821 23.0315 19.1902 23.0696 19.0943 23.0696H18.7329V27.0449C18.7329 27.1407 18.6949 27.2326 18.6271 27.3004C18.5593 27.3682 18.4674 27.4062 18.3715 27.4062H14.0348C13.939 27.4062 13.8471 27.3682 13.7793 27.3004C13.7115 27.2326 13.6735 27.1407 13.6735 27.0449V23.0696H13.3121C13.2162 23.0696 13.1243 23.0315 13.0565 22.9637C12.9887 22.8959 12.9507 22.804 12.9507 22.7082V21.624C12.9507 21.5281 12.9887 21.4362 13.0565 21.3684C13.1243 21.3007 13.2162 21.2626 13.3121 21.2626H13.5334L12.6078 18.4858C12.59 18.4326 12.5849 18.376 12.5928 18.3205C12.6008 18.2649 12.6215 18.212 12.6534 18.1659L15.9059 13.4678C15.9392 13.4198 15.9836 13.3805 16.0354 13.3533C16.0872 13.3262 16.1447 13.312 16.2032 13.312C16.2616 13.312 16.3192 13.3262 16.371 13.3533C16.4228 13.3805 16.4672 13.4198 16.5004 13.4678ZM16.404 17.7096C16.3445 17.6699 16.2747 17.6487 16.2032 17.6487C16.1074 17.6488 16.0155 17.6869 15.9478 17.7547C15.88 17.8224 15.8419 17.9143 15.8418 18.0101C15.8418 18.0816 15.863 18.1514 15.9027 18.2109C15.9424 18.2703 15.9989 18.3166 16.0649 18.344C16.1309 18.3713 16.2036 18.3785 16.2737 18.3645C16.3438 18.3506 16.4082 18.3162 16.4587 18.2656C16.5093 18.2151 16.5437 18.1507 16.5576 18.0806C16.5716 18.0105 16.5644 17.9378 16.5371 17.8718C16.5097 17.8057 16.4634 17.7493 16.404 17.7096ZM14.3962 23.0696V26.6835H18.0101V23.0696H14.3962ZM13.6735 21.9854V22.3468H18.7329V21.9854H13.6735ZM14.2955 21.2626H18.1109L19.0559 18.4288L16.5646 14.8303V16.9259C16.5644 16.9462 16.5626 16.9664 16.5592 16.9864C16.8012 17.0706 17.0056 17.2377 17.1361 17.4582C17.2667 17.6787 17.3149 17.9383 17.2722 18.191C17.2296 18.4437 17.0988 18.6731 16.9031 18.8385C16.7074 19.0039 16.4594 19.0947 16.2032 19.0947C15.9469 19.0947 15.699 19.0039 15.5033 18.8385C15.3076 18.6731 15.1768 18.4437 15.1341 18.191C15.0915 17.9383 15.1397 17.6787 15.2702 17.4582C15.4008 17.2377 15.6052 17.0706 15.8472 16.9864C15.8438 16.9664 15.842 16.9462 15.8418 16.9259V14.8303L13.3505 18.4288L14.2955 21.2626Z" fill="#3D4E54"/>
</svg>
