<svg width="34" height="32" viewBox="0 0 34 32" fill="none" xmlns="http://www.w3.org/2000/svg">
<path fill-rule="evenodd" clip-rule="evenodd" d="M25.2792 26.1667H8.32088C6.9303 26.1667 5.80005 25.0364 5.80005 23.6458V9.89581V8.52083C5.80005 7.13025 6.9303 6 8.32088 6H25.2792C26.6698 6 27.8 7.13025 27.8 8.52083V9.89581V23.6458C27.8 25.0364 26.6698 26.1667 25.2792 26.1667ZM26.425 10.5833V23.6458C26.425 24.2774 25.9108 24.7917 25.2792 24.7917H8.32088C7.6893 24.7917 7.17505 24.2774 7.17505 23.6458V10.5833H26.425ZM26.425 9.20831H7.17505V8.52083C7.17505 7.88925 7.6893 7.375 8.32088 7.375H25.2792C25.9108 7.375 26.425 7.88925 26.425 8.52083V9.20831ZM11.5017 21.3816C11.6355 21.5164 11.8115 21.5833 11.9875 21.5833C12.1635 21.5833 12.3395 21.5164 12.4733 21.3816L15.4525 18.4025C15.7211 18.1339 15.7211 17.6985 15.4525 17.4299L12.4733 14.4507C12.2048 14.1821 11.7693 14.1821 11.5008 14.4507C11.2322 14.7193 11.2322 15.1547 11.5008 15.4233L13.9941 17.9166L11.5017 20.409C11.2331 20.6776 11.2331 21.113 11.5017 21.3816ZM17.4875 21.5833H21.6125C21.992 21.5833 22.3 21.2753 22.3 20.8958C22.3 20.5163 21.992 20.2083 21.6125 20.2083H17.4875C17.108 20.2083 16.8 20.5163 16.8 20.8958C16.8 21.2753 17.108 21.5833 17.4875 21.5833Z" fill="#3D4E54"/>
</svg>
