<svg width="34" height="32" viewBox="0 0 34 32" fill="none" xmlns="http://www.w3.org/2000/svg">
<path d="M22.9726 18.7197L21.7401 18.3578L19.0587 16.6064V16.2051C19.835 15.6195 20.3681 14.7244 20.4672 13.6984C20.8566 13.6358 21.1549 13.2974 21.1549 12.8907V11.7872C21.1549 11.7829 21.1544 11.7787 21.1542 11.7745V10.3766C21.3094 10.2655 21.4078 10.0846 21.4078 9.88165V8.60237L23.2583 8.28717C23.5624 8.23536 23.7811 7.99382 23.8026 7.68608C23.824 7.37834 23.641 7.10879 23.347 7.01531L17.1087 5.03106C16.9785 4.98963 16.841 4.98967 16.7109 5.03102L10.4725 7.01531C10.1785 7.10879 9.99541 7.37834 10.0169 7.68604C10.0305 7.88156 10.1239 8.05014 10.2681 8.16055V9.83346H10.2529C9.90156 9.83346 9.61577 10.1193 9.61577 10.4706V11.301L9.2045 13.7148C9.13342 14.1323 9.45499 14.5144 9.8795 14.5144H11.2719C11.6955 14.5144 12.0182 14.1332 11.9469 13.7148L11.5357 11.301V10.4706C11.5357 10.1193 11.2499 9.83346 10.8986 9.83346H10.8834V8.342L12.413 8.60254V9.88165C12.413 10.0837 12.511 10.2644 12.6654 10.3756L12.6659 11.7873V12.8907C12.6659 13.2975 12.9642 13.6358 13.3536 13.6984C13.4527 14.7239 13.9852 15.6185 14.7608 16.2042V16.6073L12.0799 18.3584L10.8485 18.7199C9.53066 19.1067 8.60018 20.3165 8.60018 21.7229V22.6396C8.60018 22.8095 8.73787 22.9473 8.9078 22.9473C9.07772 22.9473 9.21541 22.8096 9.21541 22.6396V21.7229C9.21541 20.6145 9.95817 19.6223 11.0217 19.3102L12.1692 18.9734L16.7533 21.6973C16.8464 21.7526 16.9695 21.7556 17.0676 21.6973L21.652 18.9732L22.7994 19.31C23.8628 19.6222 24.6055 20.6143 24.6055 21.7227V24.6937C24.6055 25.0748 24.2955 25.3849 23.9144 25.3849H22.5586V24.0589C22.5586 23.889 22.4209 23.7513 22.251 23.7513C22.0811 23.7513 21.9433 23.889 21.9433 24.0589V25.3849H11.8761V24.0589C11.8761 23.889 11.7384 23.7513 11.5685 23.7513C11.3986 23.7513 11.2609 23.889 11.2609 24.0589V25.3849H9.90645C9.52537 25.3849 9.21533 25.0748 9.21533 24.6937V24.0776C9.21533 23.9077 9.07764 23.77 8.90771 23.77C8.73779 23.77 8.6001 23.9077 8.6001 24.0776V24.6937C8.6001 25.414 9.18609 26 9.9064 26H23.9143C24.6347 26 25.2207 25.414 25.2207 24.6937V21.7226C25.2207 20.3494 24.3219 19.1159 22.9726 18.7197V18.7197ZM11.2719 13.8992H9.8795C9.83647 13.8992 9.80366 13.8608 9.81096 13.8181L10.183 11.6346H10.9684L11.3404 13.818C11.3477 13.8607 11.3151 13.8992 11.2719 13.8992V13.8992ZM10.9204 10.4706V11.0194H10.2309V10.4706C10.2309 10.4585 10.2407 10.4486 10.2528 10.4486H10.8985C10.9106 10.4486 10.9204 10.4585 10.9204 10.4706V10.4706ZM15.8102 20.3059L15.9327 20.494L12.7921 18.6279L14.7855 17.3259C14.8759 18.3866 15.2256 19.4072 15.8102 20.3059ZM15.8081 18.978C16.5321 19.0808 17.2882 19.0809 18.0127 18.978C17.8727 19.3224 17.7002 19.6548 17.4949 19.9704L16.9104 20.8688L16.3259 19.9704C16.1206 19.6548 15.9481 19.3224 15.8081 18.978V18.978ZM18.0106 20.3059C18.5952 19.4072 18.9449 18.3866 19.0352 17.3259L21.0286 18.6279L17.8881 20.494L18.0106 20.3059ZM19.81 10.4911H20.539V11.4795H20.1772C19.9747 11.4795 19.8099 11.3148 19.8099 11.1123V10.4911H19.81ZM10.6589 7.60159L16.8974 5.61725C16.9054 5.61471 16.914 5.61467 16.9222 5.6173L23.1606 7.60159C23.1735 7.60569 23.1912 7.61127 23.1889 7.6433C23.1867 7.6753 23.1684 7.67837 23.1551 7.68067L21.0925 8.03197L20.3181 7.9362C20.1496 7.91532 19.996 8.03517 19.9751 8.20374C19.9542 8.37236 20.0741 8.52592 20.2426 8.54675L20.7926 8.6148V9.87595L13.0282 9.87566V8.61476L16.2113 8.22089C16.6749 8.16359 17.145 8.16359 17.6083 8.22089L18.813 8.3699C18.9816 8.39077 19.1352 8.27097 19.1561 8.10239C19.177 7.93378 19.0572 7.78021 18.8886 7.75934L17.6838 7.61033C17.1704 7.54679 16.6495 7.54679 16.1358 7.61033L12.7276 8.03205L10.6644 7.68067C10.651 7.67837 10.6328 7.6753 10.6305 7.6433C10.6283 7.61127 10.646 7.60565 10.6589 7.60159V7.60159ZM13.281 11.4795L13.2806 10.4911H14.0108V11.1124C14.0108 11.3148 13.8461 11.4796 13.6436 11.4796H13.281V11.4795ZM13.958 13.5403C13.9422 13.2898 13.734 13.0936 13.4841 13.0936C13.3721 13.0936 13.2811 13.0026 13.2811 12.8907V12.0948H13.6436C14.1853 12.0948 14.626 11.6541 14.626 11.1124V10.4911H19.1947V11.1124C19.1947 11.6541 19.6355 12.0948 20.1772 12.0948H20.5397V12.8907C20.5397 13.0026 20.4486 13.0936 20.3367 13.0936C20.0868 13.0936 19.8786 13.2898 19.8627 13.5404C19.7648 15.0936 18.4679 16.3103 16.9104 16.3103C15.3528 16.3103 14.056 15.0936 13.958 13.5403V13.5403ZM16.9104 16.9255C17.4575 16.9255 17.9775 16.8004 18.4435 16.578V16.7729C18.4435 17.2989 18.3725 17.8177 18.2359 18.3181C17.3999 18.4775 16.4548 18.4839 15.5849 18.3181C15.4483 17.8177 15.3773 17.2989 15.3773 16.7729C15.3773 16.7664 15.3764 16.7601 15.376 16.7536C15.3759 16.7523 15.376 16.7511 15.376 16.7498V16.5774C15.8423 16.8002 16.3628 16.9255 16.9104 16.9255V16.9255Z" fill="#3D4E54"/>
</svg>
