<svg width="34" height="32" viewBox="0 0 34 32" fill="none" xmlns="http://www.w3.org/2000/svg">
<path fill-rule="evenodd" clip-rule="evenodd" d="M24.9757 13.1165C24.1953 12.3361 23.3205 11.6854 22.3781 11.1711L25.9267 7.62249C26.072 7.47718 26.072 7.24232 25.9267 7.09702C25.7814 6.95171 25.5466 6.95171 25.4012 7.09702L21.6772 10.8207C20.2168 10.1517 18.6177 9.79759 16.9632 9.79759C13.9364 9.79759 11.0908 10.976 8.95068 13.1165L6 16.0672L9.02426 19.0915C9.77605 19.8433 10.6163 20.4735 11.5193 20.9786L8.12084 24.377C7.97554 24.5224 7.97554 24.7572 8.12084 24.9025C8.19331 24.975 8.28845 25.0114 8.38358 25.0114C8.47872 25.0114 8.57385 24.975 8.64632 24.9025L12.2113 21.3376C13.7015 22.0395 15.3403 22.4101 17.0364 22.4101C20.0633 22.4101 22.9088 21.2316 25.049 19.0911L28 16.1401L24.9757 13.1165ZM12.0652 20.433C11.1507 19.9455 10.3034 19.3196 9.54973 18.566L7.05095 16.0672L9.47652 13.6416C11.4762 11.6419 14.1352 10.5405 16.9632 10.5405C18.4136 10.5405 19.8184 10.8318 21.1139 11.384L12.0652 20.433ZM24.5235 18.566C22.5238 20.5657 19.8648 21.6672 17.0368 21.6672C15.5447 21.6672 14.101 21.3576 12.775 20.7745L21.8281 11.7215C22.7832 12.2168 23.668 12.8594 24.4503 13.642L26.9491 16.1408L24.5235 18.566ZM16.9895 11.2618C14.3257 11.2618 12.1584 13.4291 12.1584 16.0929C12.1584 17.038 12.4353 17.9176 12.9061 18.6631L19.5597 12.0095C18.8142 11.5387 17.9346 11.2618 16.9895 11.2618ZM16.9895 20.9236C16.014 20.9236 15.1065 20.6308 14.3462 20.1317L21.0287 13.4492C21.5278 14.2096 21.8206 15.1171 21.8206 16.0926C21.8206 18.7563 19.6533 20.9236 16.9895 20.9236Z" fill="#3D4E54"/>
</svg>
