<svg width="33" height="32" viewBox="0 0 33 32" fill="none" xmlns="http://www.w3.org/2000/svg">
<path d="M21.5021 11.1859C21.5021 11.7918 21.061 12.1603 20.7389 12.4307C20.6169 12.5332 20.3899 12.7201 20.3905 12.7899C20.3927 13.0637 20.1725 13.2824 19.8987 13.2824C19.8973 13.2824 19.8959 13.2824 19.8945 13.2824C19.6226 13.2824 19.401 13.0704 19.3988 12.798C19.3944 12.2609 19.7863 11.9393 20.1012 11.6749C20.3483 11.4674 20.5104 11.3214 20.5104 11.1878C20.5104 10.9174 20.2903 10.6973 20.0199 10.6973C19.7493 10.6973 19.5292 10.9174 19.5292 11.1878C19.5292 11.4617 19.3072 11.6837 19.0333 11.6837C18.7594 11.6837 18.5374 11.4617 18.5374 11.1878C18.5374 10.3705 19.2024 9.70556 20.0198 9.70556C20.8372 9.70551 21.5021 10.3686 21.5021 11.1859ZM19.9082 13.7401C19.6344 13.7401 19.4233 13.9621 19.4233 14.236V14.2398C19.4233 14.5137 19.6344 14.7338 19.9082 14.7338C20.1821 14.7338 20.4041 14.5099 20.4041 14.236C20.4041 13.9621 20.1821 13.7401 19.9082 13.7401ZM9.91325 17.1943C9.63937 17.1943 9.41739 17.4162 9.41739 17.6901C9.41739 17.964 9.63937 18.186 9.91325 18.186H9.95458C10.2285 18.186 10.4504 17.964 10.4504 17.6901C10.4504 17.4162 10.2285 17.1943 9.95458 17.1943H9.91325ZM11.6366 17.1943C11.3627 17.1943 11.1407 17.4162 11.1407 17.6901C11.1407 17.964 11.3627 18.186 11.6366 18.186H11.6779C11.9518 18.186 12.1737 17.964 12.1737 17.6901C12.1737 17.4162 11.9518 17.1943 11.6779 17.1943H11.6366ZM26.2002 9.27421V14.8555C26.2002 16.177 25.1406 17.2494 23.8191 17.2494H17.3884C17.2627 17.2494 17.1591 17.2486 17.0725 17.2468C16.9818 17.245 16.8796 17.2442 16.8398 17.2486C16.7983 17.2762 16.6966 17.3694 16.5986 17.4597C16.5598 17.4954 16.5158 17.5348 16.4683 17.5781L14.649 19.2364C14.5038 19.3688 14.2891 19.403 14.1094 19.3238C13.9297 19.2445 13.8035 19.0666 13.8035 18.8701V13.613H8.60901C7.83424 13.613 7.19193 14.2479 7.19193 15.0225V20.6039C7.19193 21.3786 7.8343 21.9877 8.60901 21.9877H15.7922C15.9158 21.9877 16.0315 22.0445 16.1229 22.1279L17.6052 23.4945V18.7816C17.6052 18.5077 17.8271 18.2857 18.101 18.2857C18.3749 18.2857 18.5969 18.5077 18.5969 18.7816V24.6184C18.5969 24.8148 18.4845 24.9901 18.3047 25.0694C18.2404 25.0978 18.1758 25.109 18.1082 25.109C17.9868 25.109 17.867 25.0591 17.7739 24.974L15.5999 22.9793H8.60901C7.28747 22.9793 6.2002 21.9253 6.2002 20.6038V15.0225C6.2002 13.701 7.28747 12.6213 8.60901 12.6213H13.8035V9.27421C13.8035 7.95267 14.8991 6.89124 16.2206 6.89124H23.8191C25.1406 6.89124 26.2002 7.95267 26.2002 9.27421ZM25.2085 9.27421C25.2085 8.4995 24.5937 7.88297 23.8191 7.88297H16.2206C15.4459 7.88297 14.7952 8.4995 14.7952 9.27421V13.1218V17.7462L15.7922 16.8452C15.8384 16.8031 15.8901 16.7645 15.9279 16.7297C16.3831 16.3102 16.4996 16.2431 17.0934 16.2554C17.1744 16.2571 17.2709 16.2577 17.3884 16.2577H23.8191C24.5937 16.2577 25.2085 15.6302 25.2085 14.8556V9.27421Z" fill="#3D4E54"/>
</svg>
