<svg width="34" height="32" viewBox="0 0 34 32" fill="none" xmlns="http://www.w3.org/2000/svg">
<path fill-rule="evenodd" clip-rule="evenodd" d="M7.16015 8.08H5.84015C5.59683 8.08 5.40015 7.88332 5.40015 7.64C5.40015 7.39668 5.59683 7.2 5.84015 7.2H7.16015V5.44C7.16015 5.19668 7.35683 5 7.60015 5H12.8801C13.1235 5 13.3201 5.19668 13.3201 5.44V7.2H28.7201C28.9635 7.2 29.1601 7.39668 29.1601 7.64C29.1601 7.88332 28.9635 8.08 28.7201 8.08H13.3201V9.84C13.3201 10.0833 13.1235 10.28 12.8801 10.28H7.60015C7.35683 10.28 7.16015 10.0833 7.16015 9.84V8.08ZM28.7201 15.56H20.3601V13.8C20.3601 13.5567 20.1635 13.36 19.9201 13.36H14.6401C14.3968 13.36 14.2001 13.5567 14.2001 13.8V15.56H5.84015C5.59683 15.56 5.40015 15.7567 5.40015 16C5.40015 16.2433 5.59683 16.44 5.84015 16.44H14.2001V18.2C14.2001 18.4433 14.3968 18.64 14.6401 18.64H19.9201C20.1635 18.64 20.3601 18.4433 20.3601 18.2V16.44H28.7201C28.9635 16.44 29.1601 16.2433 29.1601 16C29.1601 15.7567 28.9635 15.56 28.7201 15.56ZM19.4801 17.76H15.0801V14.24H19.4801V17.76ZM27.4001 23.92H28.7201C28.9635 23.92 29.1601 24.1167 29.1601 24.36C29.1601 24.6033 28.9635 24.8 28.7201 24.8H27.4001V26.56C27.4001 26.8033 27.2035 27 26.9601 27H21.6801C21.4368 27 21.2401 26.8033 21.2401 26.56V24.8H5.84015C5.59683 24.8 5.40015 24.6033 5.40015 24.36C5.40015 24.1167 5.59683 23.92 5.84015 23.92H21.2401V22.16C21.2401 21.9167 21.4368 21.72 21.6801 21.72H26.9601C27.2035 21.72 27.4001 21.9167 27.4001 22.16V23.92ZM22.1201 26.12H26.5201V22.6H22.1201V26.12ZM12.4401 5.88H8.04015V9.4H12.4401V5.88Z" fill="#3D4E54"/>
</svg>
