<svg width="34" height="32" viewBox="0 0 34 32" fill="none" xmlns="http://www.w3.org/2000/svg">
<path fill-rule="evenodd" clip-rule="evenodd" d="M20.5105 7.41038C21.5866 7.86136 21.745 9.00456 21.7517 9.05753C21.7535 9.07171 21.7544 9.08597 21.7544 9.10023V11.5243C21.7544 11.8055 21.6743 12.0827 21.5228 12.3257C21.1106 12.9868 20.9677 13.8037 20.9525 13.8963C20.7618 15.9952 19.9051 16.9593 19.3482 17.3709V18.1661L20.4206 18.5506L20.4278 18.5533L24.6415 20.0777C25.4328 20.3639 26.0097 21.0575 26.1471 21.8876L26.5834 24.5217C26.6428 24.8804 26.542 25.2454 26.3068 25.5228C26.0716 25.8002 25.728 25.9593 25.3642 25.9593H16.614L16.6075 25.9594H16.6001L16.5963 25.9594H7.83597C7.47229 25.9594 7.12874 25.8003 6.89347 25.5229C6.65823 25.2455 6.55737 24.8806 6.61679 24.5217L7.053 21.8876C7.19046 21.0575 7.76741 20.3639 8.55866 20.0778L12.7787 18.551L12.784 18.5491L13.8521 18.1662V17.4206C12.3199 16.2967 12.2519 14.0258 12.2497 13.9273L12.2496 13.9198V13.3832C12.2214 12.9204 12.0475 12.6138 11.9061 12.4378C11.619 12.0803 11.4608 11.6278 11.4608 11.1638V9.38292C11.4608 7.53995 12.9602 6.04065 14.803 6.04065H19.3416C19.3633 6.04065 19.3849 6.04272 19.4061 6.04686C19.9016 6.14319 20.2397 6.36307 20.411 6.70049C20.5385 6.95155 20.5418 7.2096 20.5105 7.41038ZM15.6357 23.1528L15.8476 21.8172L15.7738 21.7112L15.2416 22.4361L15.6357 23.1528ZM17.0074 21.1405L16.6011 20.5873L16.197 21.1355L16.4804 21.5425C16.5303 21.6142 16.5506 21.7024 16.5369 21.7887L16.1672 24.1188L16.6002 24.906L17.039 24.1081L16.671 21.7887C16.6573 21.7024 16.6776 21.6141 16.7275 21.5425L17.0074 21.1405ZM17.4303 21.7167L17.3603 21.8172L17.5704 23.1415L17.9584 22.436L17.4303 21.7167ZM14.5449 22.5728L15.3236 23.9885L13.1195 21.9722L13.4742 21.2952C13.5287 21.1912 13.5253 21.0664 13.4653 20.9654C13.4053 20.8645 13.2973 20.802 13.1799 20.8002L12.3152 20.7868L12.9084 19.5972L14.5408 22.5651L14.5449 22.5728ZM17.8767 23.9883L20.0806 21.9722L19.726 21.2951C19.6715 21.1911 19.6749 21.0663 19.7349 20.9654C19.7949 20.8645 19.9029 20.802 20.0203 20.8001L20.8849 20.7868L20.2917 19.5972L18.6591 22.5656L18.6552 22.5729L17.8767 23.9883ZM17.8507 18.7719L16.6001 19.6076L16.4155 19.4843L14.5283 18.2232V17.9157C15.0328 18.2822 15.7749 18.7319 16.3798 18.7319H16.3837C16.4225 18.7362 16.4917 18.7419 16.5855 18.7419C16.9829 18.7419 17.8229 18.6396 18.6719 17.8948V18.2232L18.6718 18.2232L17.8507 18.7719ZM15.5515 20.8713L16.1183 20.0992L14.1441 18.7799L13.3811 19.0534L14.8822 21.7827L15.5084 20.9298L15.5101 20.9275L15.5504 20.8728L15.5504 20.8727L15.5515 20.8713ZM17.701 20.9425L18.3179 21.7827L19.8191 19.0534L19.0562 18.7799L17.0819 20.0992L17.6956 20.9349C17.6974 20.9374 17.6992 20.9399 17.701 20.9425ZM20.2785 13.8396H20.2785L20.2785 13.8397L20.2785 13.8396ZM20.2785 13.8396V11.0684L20.2785 11.0684L20.2785 13.8396ZM14.3777 16.9628L20.2785 13.8397C20.0942 15.8538 19.2361 16.6346 18.875 16.8771C18.8622 16.8857 18.8496 16.8946 18.8369 16.9035L18.8197 16.9156L18.8182 16.9167C18.617 17.0552 18.4304 17.202 18.2634 17.3529C18.0913 17.5085 17.9209 17.6307 17.7574 17.7265C17.069 18.1297 16.5032 18.0659 16.4546 18.0594L16.4528 18.0591C16.4332 18.0562 16.4132 18.055 16.3934 18.0555C16.0337 18.0647 15.3853 17.7361 14.6993 17.1973C14.5944 17.1149 14.4868 17.0364 14.3795 16.964L14.3777 16.9628ZM21.0781 11.5241C21.0781 11.6751 21.0355 11.8249 20.9549 11.9581V11.0453C20.9548 11.0331 20.9541 11.021 20.9528 11.0088C20.9484 10.9681 20.8518 10.1664 20.1136 9.63297C19.9604 9.52227 19.7796 9.42313 19.5662 9.34474L19.5661 9.34472L19.5616 9.3431L19.5616 9.34308L17.9876 8.79052L17.9875 8.7905C17.8101 8.72819 17.6244 8.6971 17.4389 8.6971C17.2868 8.6971 17.1348 8.718 16.9874 8.75977C16.9414 8.77278 16.8959 8.78783 16.851 8.80489C16.3996 8.97638 16.05 9.10259 15.8402 9.1699C15.7448 9.20048 15.6444 9.21599 15.5419 9.21599H14.0466C14.0321 9.21599 14.0175 9.21693 14.0031 9.21876C13.9459 9.22618 12.5972 9.41798 12.2578 10.9393C12.2524 10.9635 12.2496 10.9881 12.2496 11.0129V11.7089C12.176 11.5387 12.137 11.3529 12.137 11.1639V9.383C12.137 7.913 13.333 6.71702 14.803 6.71702H19.3075C19.494 6.75674 19.7206 6.83827 19.8066 7.00413C19.9118 7.20714 19.7919 7.48667 19.7918 7.4869C19.7486 7.57889 19.7491 7.68542 19.793 7.77702C19.837 7.86862 19.9199 7.93558 20.0187 7.95936C20.8796 8.16659 21.0552 8.99226 21.0781 9.12581V11.5241H21.0781ZM25.3643 25.2831C25.5289 25.2831 25.6845 25.211 25.791 25.0854C25.8976 24.9598 25.9432 24.7946 25.9163 24.6322V24.6321L25.4801 21.998C25.3826 21.4089 24.9732 20.9167 24.4116 20.7136L20.9864 19.4744L21.73 20.9657C21.7819 21.0697 21.7767 21.193 21.7163 21.2923C21.6559 21.3916 21.5488 21.4529 21.4326 21.4547L20.58 21.4678L20.8006 21.889C20.8719 22.025 20.8426 22.1918 20.7293 22.2954L17.4633 25.2831H25.3643ZM7.83601 25.2831C7.67132 25.2831 7.51577 25.2111 7.40929 25.0854C7.3028 24.9599 7.25718 24.7947 7.28405 24.6322L7.72026 21.9981C7.8178 21.4089 8.22722 20.9168 8.78874 20.7136L12.2139 19.4745L11.4703 20.9656C11.4185 21.0697 11.4236 21.1929 11.4841 21.2923C11.5444 21.3916 11.6516 21.4529 11.7678 21.4547L12.6204 21.4678L12.3997 21.889C12.3285 22.025 12.3578 22.1918 12.471 22.2954L15.7371 25.2831H7.83601Z" fill="#3D4E54"/>
</svg>
