<svg width="33" height="32" viewBox="0 0 33 32" fill="none" xmlns="http://www.w3.org/2000/svg">
<path fill-rule="evenodd" clip-rule="evenodd" d="M4.30029 8.01769C4.30029 6.91997 5.2046 6 6.35712 6H27.4263C28.5798 6 29.4831 6.92047 29.4831 8.01769V23.0093C29.4831 24.1066 28.5798 25.027 27.4263 25.027H6.35712C5.2046 25.027 4.30029 24.1071 4.30029 23.0093V8.01769ZM6.85419 8.4916V22.5354H9.81953L17.2588 12.1747L20.0111 15.8462L23.6648 10.166L26.9292 14.8592V8.4916H6.85419ZM26.9292 19.2966L23.7484 14.7235L20.1727 20.2824L17.3035 16.4551L12.9377 22.5354H26.9292V19.2966ZM8.11602 13.1006C8.11602 11.3077 9.59086 9.82612 11.4451 9.82612C13.2993 9.82612 14.7741 11.3077 14.7741 13.1006C14.7741 14.8935 13.2993 16.3751 11.4451 16.3751C9.59084 16.3751 8.11602 14.8935 8.11602 13.1006ZM11.4451 12.3177C11.0329 12.3177 10.6699 12.6527 10.6699 13.1006C10.6699 13.5485 11.0329 13.8835 11.4451 13.8835C11.8572 13.8835 12.2202 13.5485 12.2202 13.1006C12.2202 12.6527 11.8572 12.3177 11.4451 12.3177Z" fill="#3D4E54"/>
</svg>
