<svg width="34" height="32" viewBox="0 0 34 32" fill="none" xmlns="http://www.w3.org/2000/svg">
<path fill-rule="evenodd" clip-rule="evenodd" d="M16.8843 8.33943V2.50574C16.8843 2.22896 17.1132 2.00009 17.39 2.00009C17.531 1.99743 17.6588 2.05598 17.7493 2.14646C17.8398 2.23695 17.8956 2.36735 17.8956 2.50574L17.8956 8.33943C19.5776 8.45653 21.225 9.15646 22.5078 10.4392C22.5369 10.4683 22.5656 10.4976 22.5941 10.5271C22.6439 10.5741 22.6931 10.622 22.7419 10.6707C24.0246 11.9535 24.7246 13.6009 24.8417 15.2828H30.6754C30.9521 15.2828 31.181 15.5117 31.181 15.7885C31.1837 15.9295 31.1251 16.0573 31.0346 16.1478C30.9442 16.2383 30.8137 16.2941 30.6754 16.2941L24.8417 16.2941C24.7246 17.9761 24.0246 19.6235 22.7419 20.9063C22.7125 20.9357 22.6829 20.9647 22.6531 20.9935C22.6059 21.0434 22.5579 21.0929 22.509 21.1418C21.2262 22.4245 19.5788 23.1245 17.8969 23.2416L17.8969 29.0753C17.8969 29.352 17.668 29.5809 17.3912 29.5809C17.2502 29.5836 17.1224 29.525 17.0319 29.4345C16.9414 29.3441 16.8856 29.2137 16.8856 29.0753L16.8856 23.2416C15.2036 23.1245 13.5562 22.4245 12.2734 21.1418C12.2443 21.1127 12.2155 21.0834 12.1871 21.0539C12.1373 21.0069 12.0881 20.959 12.0393 20.9103C10.7566 19.6275 10.0566 17.9801 9.93953 16.2982L4.10584 16.2982C3.82906 16.2982 3.60019 16.0693 3.60019 15.7925C3.59752 15.6515 3.65607 15.5237 3.74656 15.4332C3.83704 15.3427 3.96745 15.2869 4.10584 15.2869L9.93953 15.2869C10.0566 13.6049 10.7566 11.9575 12.0393 10.6747C12.0687 10.6454 12.0983 10.6163 12.1281 10.5875C12.1753 10.5376 12.2233 10.4881 12.2722 10.4392C13.555 9.15646 15.2024 8.45653 16.8843 8.33943ZM13.0832 20.0469C15.4663 22.3369 19.2415 22.3564 21.6478 20.0984C23.9371 17.7151 23.9563 13.9402 21.698 11.5341C19.3149 9.24414 15.5397 9.22455 13.1334 11.4826C10.8441 13.8659 10.8249 17.6409 13.0832 20.0469Z" fill="#3D4E54"/>
</svg>
