<svg width="34" height="32" viewBox="0 0 34 32" fill="none" xmlns="http://www.w3.org/2000/svg">
<path fill-rule="evenodd" clip-rule="evenodd" d="M16.4077 7.44431C16.7212 7.69604 17.0108 7.97658 17.2697 8.28261C17.5287 7.97658 17.8182 7.69604 18.1317 7.44431C19.2657 6.5337 20.7134 6 22.161 6C25.5306 6 28.1393 8.6087 28.1393 11.9783C28.1393 16.1087 24.4436 19.4783 18.7915 24.4783L17.2697 26L15.748 24.4783C10.0958 19.4783 6.40015 16.1087 6.40015 11.9783C6.40015 8.6087 9.00884 6 12.3784 6C13.826 6 15.2737 6.5337 16.4077 7.44431ZM17.2697 24.3029L17.9689 23.6038L17.9964 23.5795C20.8426 21.0616 23.1002 19.0354 24.6579 17.1402C26.2019 15.2617 26.9393 13.6508 26.9393 11.9783C26.9393 9.27144 24.8678 7.2 22.161 7.2C20.6719 7.2 19.1571 7.90978 18.1858 9.05774L17.2697 10.1404L16.3536 9.05774C15.3823 7.90978 13.8676 7.2 12.3784 7.2C9.67158 7.2 7.60015 9.27144 7.60015 11.9783C7.60015 13.6508 8.33756 15.2617 9.88154 17.1402C11.4392 19.0354 13.6968 21.0616 16.5431 23.5795L16.5705 23.6038L17.2697 24.3029Z" fill="#3D4E54"/>
</svg>
