<svg width="37" height="36" viewBox="0 0 37 36" fill="none" xmlns="http://www.w3.org/2000/svg">
<rect x="0.400146" width="36" height="36" rx="6" fill="#E9672B"/>
<path fill-rule="evenodd" clip-rule="evenodd" d="M27.3398 13.1201C27.9252 13.1201 28.3998 12.6455 28.3998 12.06C28.3998 11.4746 27.9252 11 27.3398 11H9.59413C9.00869 11 8.5341 11.4746 8.5341 12.06C8.5341 12.6455 9.00869 13.1201 9.59413 13.1201L27.3398 13.1201ZM28.4 17.9999C28.4 18.5854 27.9254 19.0599 27.34 19.0599L9.59438 19.0599C9.00894 19.0599 8.53434 18.5854 8.53434 17.9999C8.53434 17.4145 9.00894 16.9399 9.59438 16.9399L27.34 16.9399C27.9254 16.9399 28.4 17.4145 28.4 17.9999ZM24.7184 23.9399C24.7184 24.5253 24.2438 24.9999 23.6584 24.9999L9.46018 24.9999C8.87474 24.9999 8.40015 24.5253 8.40015 23.9399C8.40015 23.3545 8.87474 22.8799 9.46018 22.8799L23.6584 22.8799C24.2438 22.8799 24.7184 23.3545 24.7184 23.9399Z" fill="#F9F9F9"/>
</svg>
