<svg width="33" height="32" viewBox="0 0 33 32" fill="none" xmlns="http://www.w3.org/2000/svg">
<path fill-rule="evenodd" clip-rule="evenodd" d="M21.9091 6.65918H10.0909C7.695 6.66237 5.75319 8.60418 5.75 11.0001V18.2732C5.75306 20.2311 7.06142 21.9368 8.93182 22.458L8.93182 23.7277C8.93276 24.3629 9.30504 24.9389 9.88381 25.2006L9.88673 25.2019C10.0941 25.2925 10.3179 25.3398 10.5442 25.341L10.5453 25.341C10.941 25.3413 11.3232 25.1956 11.6184 24.932L14.2286 22.6137H21.9094C24.3053 22.6105 26.2468 20.6687 26.25 18.2728V10.9998C26.2468 8.60384 24.305 6.66237 21.9091 6.65918ZM7.61365 11C7.61365 9.63188 8.72276 8.52277 10.0909 8.52277H21.9091C23.2773 8.52277 24.3864 9.63188 24.3864 11V18.2728C24.3864 19.6409 23.2773 20.75 21.9091 20.75H13.5186L10.7955 23.1706V20.75H10.0909C8.72276 20.75 7.61365 19.6409 7.61365 18.2728V11ZM11.5114 13.7046C10.9968 13.7046 10.5796 14.1218 10.5796 14.6364C10.5796 15.151 10.9968 15.5682 11.5114 15.5682C12.026 15.5682 12.4432 15.151 12.4432 14.6364C12.4432 14.1218 12.026 13.7046 11.5114 13.7046ZM16.0001 13.7046C15.4854 13.7046 15.0682 14.1218 15.0682 14.6364C15.0682 15.151 15.4854 15.5682 16.0001 15.5682C16.5147 15.5682 16.9319 15.151 16.9319 14.6364C16.9319 14.1218 16.5147 13.7046 16.0001 13.7046ZM20.5455 13.7046C20.0308 13.7046 19.6136 14.1218 19.6136 14.6364C19.6136 15.151 20.0308 15.5682 20.5455 15.5682C21.0601 15.5682 21.4773 15.151 21.4773 14.6364C21.4773 14.1218 21.0601 13.7046 20.5455 13.7046Z" fill="#3D4E54"/>
</svg>
