<svg width="34" height="32" viewBox="0 0 34 32" fill="none" xmlns="http://www.w3.org/2000/svg">
<path fill-rule="evenodd" clip-rule="evenodd" d="M24.4397 10.5413L26.4829 13.2656C26.559 13.367 26.6001 13.4904 26.6001 13.6172V23.8516C26.6001 25.0362 25.6363 26 24.4517 26H15.8579C14.6733 26 13.7095 25.0362 13.7095 23.8516V23.614C13.5654 23.5266 13.4293 23.4212 13.305 23.2969L7.22837 17.2201C6.39067 16.3825 6.39067 15.0194 7.22837 14.1818L14.4099 7.00022C14.4996 6.91058 14.6159 6.85241 14.7414 6.83448L20.5419 6.00585C20.7245 5.97999 20.9087 6.04116 21.0391 6.17159L22.282 7.41456L23.525 6.17159C23.7538 5.9428 24.1248 5.9428 24.3536 6.17159C24.5824 6.40042 24.5824 6.77144 24.3536 7.00022L23.1107 8.24319L24.3536 9.48616C24.4841 9.61655 24.5454 9.80077 24.5194 9.98335L24.4397 10.5413ZM8.057 15.0104C7.67622 15.3912 7.67622 16.0107 8.057 16.3915L14.1337 22.4682C14.3181 22.6526 14.5634 22.7542 14.8242 22.7542C15.0851 22.7542 15.3303 22.6527 15.5148 22.4682L22.5582 15.4248L23.3178 10.1077L22.282 9.07187L21.4533 9.9005L21.8677 10.3148C22.0965 10.5437 22.0965 10.9147 21.8677 11.1435C21.7533 11.2579 21.6033 11.3151 21.4534 11.3151C21.3034 11.3151 21.1535 11.2579 21.0391 11.1435L19.3818 9.48616C19.1529 9.25733 19.1529 8.88632 19.3818 8.65753C19.6106 8.42874 19.9816 8.42874 20.2104 8.65753L20.6247 9.07187L21.4534 8.24323L20.4175 7.20741L15.1004 7.96698L8.057 15.0104ZM24.4517 24.8281C24.9901 24.8281 25.4282 24.39 25.4282 23.8516V13.8125L24.2052 12.1819L23.6907 15.7839C23.6727 15.9094 23.6146 16.0257 23.5249 16.1153L16.3434 23.2969C15.9398 23.7005 15.4142 23.909 14.8843 23.9237C14.9213 24.4286 15.3437 24.8281 15.8579 24.8281H24.4517ZM17.3134 11.1903L14.5513 19.4768C14.4694 19.7223 14.2408 19.8776 13.9955 19.8776C13.934 19.8776 13.8715 19.8678 13.8101 19.8474C13.5031 19.745 13.3372 19.4132 13.4395 19.1062L16.2016 10.8197C16.304 10.5128 16.6358 10.3469 16.9428 10.4492C17.2498 10.5515 17.4157 10.8833 17.3134 11.1903ZM20.4489 15.1483C20.4489 16.1176 19.6603 16.9061 18.691 16.9061C17.7218 16.9061 16.9332 16.1176 16.9332 15.1483C16.9332 14.1791 17.7218 13.3905 18.691 13.3905C19.6603 13.3905 20.4489 14.1791 20.4489 15.1483ZM19.277 15.1483C19.277 14.8252 19.0141 14.5624 18.691 14.5624C18.368 14.5624 18.1051 14.8252 18.1051 15.1483C18.1051 15.4714 18.368 15.7343 18.691 15.7343C19.0141 15.7343 19.277 15.4714 19.277 15.1483ZM12.0618 13.3905C11.0925 13.3905 10.304 14.1791 10.304 15.1483C10.304 16.1176 11.0925 16.9061 12.0618 16.9061C13.031 16.9061 13.8196 16.1176 13.8196 15.1483C13.8196 14.1791 13.0311 13.3905 12.0618 13.3905ZM12.0618 15.7343C11.7387 15.7343 11.4758 15.4714 11.4758 15.1483C11.4758 14.8252 11.7387 14.5624 12.0618 14.5624C12.3848 14.5624 12.6477 14.8252 12.6477 15.1483C12.6477 15.4714 12.3849 15.7343 12.0618 15.7343Z" fill="#3D4E54"/>
</svg>
