<svg width="34" height="32" viewBox="0 0 34 32" fill="none" xmlns="http://www.w3.org/2000/svg">
<path d="M26.6249 24.98L21.7646 20.1197C23.0683 18.6208 23.8577 16.6652 23.8577 14.5277C23.8577 9.82262 20.0306 6 15.33 6C10.6249 6 6.80225 9.82705 6.80225 14.5277C6.80225 19.2284 10.6293 23.0554 15.33 23.0554C17.4674 23.0554 19.4231 22.2661 20.922 20.9623L25.7823 25.8226C25.8976 25.9379 26.0528 26 26.2036 26C26.3544 26 26.5096 25.9423 26.6249 25.8226C26.8555 25.592 26.8555 25.2106 26.6249 24.98ZM7.99515 14.5277C7.99515 10.4834 11.2856 7.19734 15.3255 7.19734C19.3699 7.19734 22.6559 10.4878 22.6559 14.5277C22.6559 18.5676 19.3699 21.8625 15.3255 21.8625C11.2856 21.8625 7.99515 18.5721 7.99515 14.5277Z" fill="#3D4E54"/>
</svg>
