<svg width="33" height="32" viewBox="0 0 33 32" fill="none" xmlns="http://www.w3.org/2000/svg">
<path d="M21.9145 17.4286C20.4968 17.4286 19.2475 18.1284 18.4669 19.192L14.5666 17.2414C14.6874 16.8458 14.7716 16.4345 14.7716 16C14.7716 15.5654 14.6874 15.154 14.5666 14.7585L18.4669 12.8079C19.2475 13.8716 20.4968 14.5714 21.9145 14.5714C24.2777 14.5714 26.2002 12.6489 26.2002 10.2857C26.2002 7.92241 24.2778 6 21.9145 6C19.5512 6 17.6288 7.92245 17.6288 10.2857C17.6288 10.7203 17.7131 11.1316 17.8338 11.5271L13.9334 13.4778C13.1528 12.4141 11.9035 11.7143 10.4859 11.7143C8.1226 11.7143 6.2002 13.6367 6.2002 16C6.2002 18.3633 8.1226 20.2857 10.4859 20.2857C11.9036 20.2857 13.1529 19.5859 13.9335 18.5223L17.8338 20.4729C17.713 20.8684 17.6288 21.2797 17.6288 21.7143C17.6288 24.0776 19.5512 26 21.9145 26C24.2778 26 26.2002 24.0776 26.2002 21.7143C26.2002 19.3511 24.2777 17.4286 21.9145 17.4286V17.4286ZM21.9145 7.42859C23.4903 7.42859 24.7716 8.71069 24.7716 10.2857C24.7716 11.8608 23.4902 13.1428 21.9145 13.1428C20.3387 13.1428 19.0573 11.8607 19.0573 10.2857C19.0573 8.71069 20.3387 7.42859 21.9145 7.42859ZM10.4859 18.8572C8.91014 18.8572 7.62878 17.575 7.62878 16C7.62878 14.425 8.91018 13.1429 10.4859 13.1429C12.0617 13.1429 13.343 14.425 13.343 16C13.343 17.575 12.0617 18.8572 10.4859 18.8572V18.8572ZM21.9145 24.5714C20.3387 24.5714 19.0573 23.2893 19.0573 21.7143C19.0573 20.1393 20.3387 18.8572 21.9145 18.8572C23.4903 18.8572 24.7716 20.1393 24.7716 21.7143C24.7716 23.2894 23.4903 24.5714 21.9145 24.5714Z" fill="#3D4E54"/>
</svg>
