<svg width="34" height="32" viewBox="0 0 34 32" fill="none" xmlns="http://www.w3.org/2000/svg">
<path fill-rule="evenodd" clip-rule="evenodd" d="M27.3315 12.0865C27.3787 12.1637 27.4001 12.2495 27.4001 12.3396C27.4001 13.5754 26.6535 14.6353 25.5894 15.103C25.5936 15.1202 25.5936 15.1373 25.5936 15.1588V24.1527C25.5936 24.4359 25.3619 24.6676 25.0787 24.6676H15.5785H15.5657H11.5751H11.5622H8.71727C8.43407 24.6676 8.20235 24.4359 8.20235 24.1527V15.0944C7.14248 14.6267 6.40015 13.5711 6.40015 12.3396C6.40015 12.2495 6.42589 12.1637 6.4688 12.0865L9.58834 6.59402C9.67845 6.43097 9.85009 6.33228 10.0346 6.33228H23.7614C23.9459 6.33228 24.1176 6.43526 24.2077 6.59402L27.3315 12.0865ZM23.461 7.3664H10.335L7.89769 11.6617H25.9026L23.461 7.3664ZM19.3975 14.3178C20.3715 14.3178 21.1825 13.614 21.3456 12.6872H17.4494C17.6124 13.614 18.4234 14.3178 19.3975 14.3178ZM14.4071 14.3178C15.3811 14.3178 16.1921 13.614 16.3552 12.6872H12.4547C12.6221 13.614 13.433 14.3178 14.4071 14.3178ZM11.3648 12.6872H7.46431C7.62736 13.614 8.43836 14.3221 9.41241 14.3178C10.3865 14.3178 11.2017 13.614 11.3648 12.6872ZM12.09 23.6378H15.0507H15.055V18.0809C15.055 17.6733 14.7246 17.3472 14.3213 17.3472H12.8237C12.4161 17.3472 12.09 17.6776 12.09 18.0809V23.6378ZM16.0806 23.6378H24.5638V15.3476C24.5338 15.3476 24.5048 15.3487 24.4758 15.3497C24.4469 15.3508 24.4179 15.3519 24.3879 15.3519C23.3495 15.3519 22.4312 14.8241 21.8905 14.0217C21.3499 14.8241 20.4359 15.3519 19.3975 15.3519C18.3634 15.3519 17.4451 14.8241 16.9044 14.0217C16.3595 14.8241 15.4455 15.3519 14.4071 15.3519C13.3687 15.3519 12.4504 14.8241 11.9097 14.0217C11.3691 14.8241 10.4508 15.3519 9.41241 15.3519C9.35233 15.3519 9.29226 15.3519 9.23219 15.3476V23.642H11.0558V18.0809C11.0558 17.1069 11.8497 16.3174 12.8194 16.3174H14.317C15.291 16.3174 16.0806 17.1112 16.0806 18.0809V23.6378ZM22.4398 12.6915C22.6028 13.6183 23.4138 14.3221 24.3879 14.3221C25.3619 14.3221 26.1729 13.614 26.3403 12.6915H22.4398ZM18.4664 16.3174H21.32C22.1009 16.3174 22.736 16.9524 22.736 17.7334V19.9218C22.736 20.7028 22.1009 21.3378 21.32 21.3378H18.4664C17.6855 21.3378 17.0504 20.7028 17.0504 19.9218V17.7334C17.0504 16.9524 17.6855 16.3174 18.4664 16.3174ZM21.32 20.308C21.5302 20.308 21.7061 20.1363 21.7061 19.9218V17.7334C21.7061 17.5231 21.5345 17.3472 21.32 17.3472H18.4664C18.2562 17.3472 18.0803 17.5189 18.0803 17.7334V19.9218C18.0803 20.1321 18.2519 20.308 18.4664 20.308H21.32Z" fill="#3D4E54"/>
</svg>
