<svg width="34" height="32" viewBox="0 0 34 32" fill="none" xmlns="http://www.w3.org/2000/svg">
<g clip-path="url(#clip0_203_163)">
<path d="M16.8 6C11.286 6 6.80005 10.486 6.80005 16C6.80005 21.514 11.286 26 16.8 26C22.314 26 26.8 21.514 26.8 16C26.8 10.486 22.314 6 16.8 6ZM16.8 25.3333C11.6537 25.3333 7.46672 21.1463 7.46672 16C7.46672 10.8537 11.6537 6.66667 16.8 6.66667C21.9464 6.66667 26.1334 10.8537 26.1334 16C26.1334 21.1463 21.9464 25.3333 16.8 25.3333Z" fill="#3D4E54"/>
<path d="M17.1334 14.6736V11.2929C17.1334 11.1086 16.984 10.9596 16.8 10.9596C16.616 10.9596 16.4667 11.1086 16.4667 11.2929V14.6736C16.0004 14.7949 15.6354 15.1599 15.514 15.6263H13.1334C12.9494 15.6263 12.8 15.7753 12.8 15.9596C12.8 16.1439 12.9494 16.2929 13.1334 16.2929H15.514C15.663 16.8663 16.1807 17.2929 16.8 17.2929C17.5354 17.2929 18.1334 16.6949 18.1334 15.9596C18.1334 15.3399 17.7067 14.8226 17.1334 14.6736ZM16.8 16.6263C16.4324 16.6263 16.1334 16.3273 16.1334 15.9596C16.1334 15.5919 16.4324 15.2929 16.8 15.2929C17.1677 15.2929 17.4667 15.5919 17.4667 15.9596C17.4667 16.3273 17.1677 16.6263 16.8 16.6263Z" fill="#3D4E54"/>
<path d="M16.8001 9.29297C16.9841 9.29297 17.1335 9.14397 17.1335 8.95963V8.6263C17.1335 8.44197 16.9841 8.29297 16.8001 8.29297C16.6161 8.29297 16.4668 8.44197 16.4668 8.6263V8.95963C16.4668 9.14397 16.6161 9.29297 16.8001 9.29297Z" fill="#3D4E54"/>
<path d="M16.8001 22.6263C16.6161 22.6263 16.4668 22.7753 16.4668 22.9597V23.293C16.4668 23.4773 16.6161 23.6263 16.8001 23.6263C16.9841 23.6263 17.1335 23.4773 17.1335 23.293V22.9597C17.1335 22.7753 16.9841 22.6263 16.8001 22.6263Z" fill="#3D4E54"/>
<path d="M24.1335 15.6263H23.8001C23.6161 15.6263 23.4668 15.7753 23.4668 15.9597C23.4668 16.144 23.6161 16.293 23.8001 16.293H24.1335C24.3175 16.293 24.4668 16.144 24.4668 15.9597C24.4668 15.7753 24.3175 15.6263 24.1335 15.6263Z" fill="#3D4E54"/>
<path d="M9.79997 15.6263H9.46663C9.28263 15.6263 9.1333 15.7753 9.1333 15.9597C9.1333 16.144 9.28263 16.293 9.46663 16.293H9.79997C9.98397 16.293 10.1333 16.144 10.1333 15.9597C10.1333 15.7753 9.98397 15.6263 9.79997 15.6263Z" fill="#3D4E54"/>
<path d="M21.7497 10.5383L21.514 10.774C21.3837 10.9043 21.3837 11.115 21.514 11.2453C21.579 11.3103 21.6643 11.343 21.7497 11.343C21.835 11.343 21.9203 11.3103 21.9853 11.2453L22.221 11.0096C22.3513 10.8793 22.3513 10.6686 22.221 10.5383C22.0907 10.408 21.88 10.4083 21.7497 10.5383Z" fill="#3D4E54"/>
<path d="M11.6147 20.6737L11.379 20.9093C11.2487 21.0397 11.2487 21.2503 11.379 21.3807C11.444 21.4457 11.5293 21.4783 11.6147 21.4783C11.7 21.4783 11.7853 21.4457 11.8503 21.3807L12.086 21.145C12.2163 21.0147 12.2163 20.804 12.086 20.6737C11.9557 20.5433 11.7447 20.5437 11.6147 20.6737Z" fill="#3D4E54"/>
<path d="M21.9853 20.6737C21.855 20.5433 21.6443 20.5433 21.514 20.6737C21.3837 20.804 21.3837 21.0147 21.514 21.145L21.7497 21.3807C21.8147 21.4457 21.9 21.4783 21.9853 21.4783C22.0707 21.4783 22.156 21.4457 22.221 21.3807C22.3513 21.2503 22.3513 21.0397 22.221 20.9093L21.9853 20.6737Z" fill="#3D4E54"/>
<path d="M11.8503 10.5383C11.72 10.408 11.5093 10.408 11.379 10.5383C11.2487 10.6686 11.2487 10.8793 11.379 11.0096L11.6147 11.2453C11.6797 11.3103 11.765 11.343 11.8503 11.343C11.9357 11.343 12.021 11.3103 12.086 11.2453C12.2163 11.115 12.2163 10.9043 12.086 10.774L11.8503 10.5383Z" fill="#3D4E54"/>
</g>
<defs>
<clipPath id="clip0_203_163">
<rect width="20" height="20" fill="white" transform="translate(6.80005 6)"/>
</clipPath>
</defs>
</svg>
