<svg width="33" height="32" viewBox="0 0 33 32" fill="none" xmlns="http://www.w3.org/2000/svg">
<path fill-rule="evenodd" clip-rule="evenodd" d="M13.5546 8.65682C13.5546 7.1895 14.5742 6 15.8319 6H17.3501C18.6078 6 19.6274 7.1895 19.6274 8.65682L21.9046 8.65682H23.4227C23.842 8.65682 24.1818 9.05332 24.1818 9.54243C24.1818 10.0315 23.842 10.428 23.4227 10.428H22.6637V24.5977C22.6637 25.0868 22.3238 25.4833 21.9046 25.4833H11.2773C10.8581 25.4833 10.5182 25.0868 10.5182 24.5977V10.428H9.75909C9.33986 10.428 9 10.0315 9 9.54243C9 9.05332 9.33986 8.65682 9.75909 8.65682H11.2773L13.5546 8.65682ZM15.0727 8.65682H18.1091C18.1091 8.16771 17.7692 7.77121 17.35 7.77121H15.8318C15.4126 7.77121 15.0727 8.16771 15.0727 8.65682ZM21.1456 23.7121H12.0366V10.428H21.1456V23.7121ZM15.0727 21.9409C14.6534 21.9409 14.3136 21.5444 14.3136 21.0553V13.0849C14.3136 12.5957 14.6534 12.1992 15.0727 12.1992C15.4919 12.1992 15.8318 12.5957 15.8318 13.0849V21.0553C15.8318 21.5444 15.4919 21.9409 15.0727 21.9409ZM17.35 21.0553C17.35 21.5444 17.6898 21.9409 18.1091 21.9409C18.5283 21.9409 18.8682 21.5444 18.8682 21.0553V13.0849C18.8682 12.5957 18.5283 12.1992 18.1091 12.1992C17.6898 12.1992 17.35 12.5957 17.35 13.0849V21.0553Z" fill="#3D4E54"/>
</svg>
