<svg width="33" height="32" viewBox="0 0 33 32" fill="none" xmlns="http://www.w3.org/2000/svg">
<path fill-rule="evenodd" clip-rule="evenodd" d="M9.42735 6H23.631C24.3077 6 24.8582 6.55048 24.8582 7.22715V20.1776C24.8582 20.3939 24.6828 20.5693 24.4666 20.5693C24.2502 20.5693 24.0749 20.3939 24.0749 20.1776V7.22715C24.0749 6.9824 23.8758 6.78327 23.631 6.78327H9.42735C9.18259 6.78327 8.98347 6.9824 8.98347 7.22715V24.7728C8.98347 25.0176 9.18259 25.2167 9.42735 25.2167H16.5292C16.7455 25.2167 16.9209 25.3921 16.9209 25.6083C16.9209 25.8247 16.7455 26 16.5292 26H9.42735C8.75068 26 8.2002 25.4495 8.2002 24.7728V7.22715C8.2002 6.55048 8.75073 6 9.42735 6ZM13.2132 11.4049C13.2132 11.1885 13.3886 11.0132 13.6049 11.0132C13.8212 11.0132 13.9965 11.1885 13.9965 11.4048C13.9965 12.3118 13.2586 13.0497 12.3516 13.0497C11.4446 13.0497 10.7067 12.3118 10.7067 11.4048C10.7067 10.4978 11.4446 9.7599 12.3516 9.7599C12.5679 9.7599 12.7433 9.93524 12.7433 10.1516C12.7433 10.3679 12.5679 10.5432 12.3516 10.5432C11.8765 10.5432 11.49 10.9298 11.49 11.4049C11.49 11.88 11.8765 12.2665 12.3516 12.2665C12.8267 12.2665 13.2132 11.88 13.2132 11.4049ZM13.2132 16C13.2132 15.7837 13.3886 15.6083 13.6049 15.6083C13.8212 15.6083 13.9965 15.7837 13.9965 15.9999C13.9965 16.9069 13.2586 17.6448 12.3516 17.6448C11.4446 17.6448 10.7067 16.9069 10.7067 15.9999C10.7067 15.093 11.4446 14.355 12.3516 14.355C12.5679 14.355 12.7433 14.5304 12.7433 14.7467C12.7433 14.963 12.5679 15.1384 12.3516 15.1384C11.8765 15.1384 11.49 15.5249 11.49 16C11.49 16.4751 11.8765 16.8616 12.3516 16.8616C12.8267 16.8616 13.2132 16.4751 13.2132 16ZM18.2002 16.4438H15.2759C15.0596 16.4438 14.8842 16.6192 14.8842 16.8355C14.8842 17.0518 15.0596 17.2272 15.2759 17.2272H18.2002C18.4164 17.2272 18.5918 17.0518 18.5918 16.8355C18.5918 16.6192 18.4165 16.4438 18.2002 16.4438ZM15.2759 14.7729H18.2002C18.4165 14.7729 18.5918 14.9482 18.5918 15.1646C18.5918 15.3809 18.4164 15.5562 18.2002 15.5562H15.2759C15.0596 15.5562 14.8842 15.3809 14.8842 15.1646C14.8842 14.9482 15.0596 14.7729 15.2759 14.7729ZM17.3647 21.0391H15.2759C15.0596 21.0391 14.8842 21.2145 14.8842 21.4308C14.8842 21.6471 15.0596 21.8225 15.2759 21.8225H17.3647C17.5809 21.8225 17.7563 21.6471 17.7563 21.4308C17.7563 21.2145 17.5809 21.0391 17.3647 21.0391ZM15.2759 19.3682H18.2002C18.4165 19.3682 18.5918 19.5435 18.5918 19.7599C18.5918 19.9762 18.4164 20.1515 18.2002 20.1515H15.2759C15.0596 20.1515 14.8842 19.9762 14.8842 19.7599C14.8842 19.5435 15.0596 19.3682 15.2759 19.3682ZM21.96 11.8485H15.2759C15.0596 11.8485 14.8842 12.0239 14.8842 12.2402C14.8842 12.4565 15.0596 12.6319 15.2759 12.6319H21.9599C22.1762 12.6319 22.3516 12.4565 22.3516 12.2402C22.3516 12.0239 22.1763 11.8485 21.96 11.8485ZM15.2759 10.1776H20.2889C20.5053 10.1776 20.6806 10.3529 20.6806 10.5693C20.6806 10.7856 20.5052 10.9609 20.2889 10.9609H15.2759C15.0596 10.9609 14.8842 10.7856 14.8842 10.5693C14.8842 10.3529 15.0596 10.1776 15.2759 10.1776ZM13.6049 20.2036C13.3886 20.2036 13.2132 20.379 13.2132 20.5953C13.2132 21.0704 12.8267 21.4569 12.3516 21.4569C11.8765 21.4569 11.49 21.0704 11.49 20.5953C11.49 20.1202 11.8765 19.7337 12.3516 19.7337C12.5679 19.7337 12.7433 19.5583 12.7433 19.342C12.7433 19.1257 12.5679 18.9503 12.3516 18.9503C11.4446 18.9503 10.7067 19.6883 10.7067 20.5952C10.7067 21.5022 11.4446 22.2401 12.3516 22.2401C13.2586 22.2401 13.9965 21.5022 13.9965 20.5952C13.9965 20.379 13.8212 20.2036 13.6049 20.2036Z" fill="#3D4E54"/>
</svg>
