<svg width="34" height="32" viewBox="0 0 34 32" fill="none" xmlns="http://www.w3.org/2000/svg">
<path fill-rule="evenodd" clip-rule="evenodd" d="M22.1557 24.3674C24.7945 21.6179 26.4001 18.2178 26.4001 14.4204C26.4001 8.66637 21.9218 4 16.4001 4C10.8785 4 6.40015 8.66637 6.40015 14.4204C6.40015 18.2178 8.00581 21.6179 10.6446 24.3674C12.6341 26.4405 15.172 28 16.4001 28C17.6283 28 20.1662 26.4405 22.1557 24.3674ZM16.4002 5.88595C20.9231 5.88595 24.5914 9.70822 24.5914 14.4204C24.5914 17.6675 23.2007 20.6123 20.8772 23.0334C19.1953 24.7859 17.034 26.114 16.4002 26.114C15.7664 26.114 13.6051 24.7859 11.9232 23.0334C9.59964 20.6123 8.20897 17.6675 8.20897 14.4204C8.20897 9.70822 11.8772 5.88595 16.4002 5.88595ZM16.5268 18.2042C14.2612 18.2042 12.4227 16.3669 12.4227 14.1021C12.4227 11.8373 14.2612 10 16.5268 10C18.7925 10 20.631 11.8373 20.631 14.1021C20.631 16.3669 18.7925 18.2042 16.5268 18.2042ZM18.7451 14.1021C18.7451 15.325 17.7512 16.3183 16.5268 16.3183C15.3025 16.3183 14.3086 15.325 14.3086 14.1021C14.3086 12.8792 15.3025 11.8859 16.5268 11.8859C17.7512 11.8859 18.7451 12.8792 18.7451 14.1021Z" fill="#3D4E54"/>
</svg>
