<svg width="33" height="32" viewBox="0 0 33 32" fill="none" xmlns="http://www.w3.org/2000/svg">
<path fill-rule="evenodd" clip-rule="evenodd" d="M9.52695 23.6225C9.10623 23.2651 8.71151 22.8691 8.35375 22.4455C6.83582 20.6462 6 18.3573 6 16C6 13.3289 7.04016 10.8177 8.92891 8.92891C10.8177 7.04016 13.3289 6 16 6C18.6711 6 21.1823 7.04016 23.0711 8.92891C24.9598 10.8177 26 13.3289 26 16C26 18.3573 25.1642 20.6463 23.6464 22.4452C23.2877 22.87 22.8921 23.2668 22.4703 23.6249M21.501 22.8049C19.9491 24.0607 18.0038 24.75 16 24.75C13.9962 24.75 12.051 24.0607 10.499 22.8049C10.4167 22.4189 10.375 22.0229 10.375 21.625C10.375 18.567 12.8612 16.0443 15.9177 16.0004L16 16L16.0823 16.0004C19.1388 16.0443 21.625 18.567 21.625 21.625C21.625 22.0229 21.5833 22.4188 21.501 22.8049ZM13.6416 15.1635C12.6971 15.5077 11.8329 16.0599 11.1067 16.7957C9.87749 18.0412 9.17948 19.6754 9.12806 21.4175C7.91495 19.8795 7.25 17.967 7.25 16C7.25 11.1752 11.1752 7.25 16 7.25C20.8248 7.25 24.75 11.1752 24.75 16C24.75 17.9672 24.085 19.8797 22.8719 21.4174C22.8205 19.6754 22.1225 18.0412 20.8933 16.7957C20.1671 16.0599 19.3029 15.5076 18.3585 15.1635C19.2069 14.4754 19.75 13.4249 19.75 12.25C19.75 10.1822 18.0678 8.5 16 8.5C13.9322 8.5 12.25 10.1822 12.25 12.25C12.25 13.425 12.7932 14.4754 13.6416 15.1635ZM16 14.75C17.3785 14.75 18.5 13.6285 18.5 12.25C18.5 10.8715 17.3785 9.75 16 9.75C14.6215 9.75 13.5 10.8715 13.5 12.25C13.5 13.6285 14.6215 14.75 16 14.75ZM9.52695 23.6225C9.53103 23.6261 9.53515 23.6296 9.53931 23.633C11.3407 25.1595 13.6348 26 16 26C18.3671 26 20.6631 25.1581 22.465 23.6294" fill="#3D4E54"/>
</svg>
