<svg width="34" height="32" viewBox="0 0 34 32" fill="none" xmlns="http://www.w3.org/2000/svg">
<path fill-rule="evenodd" clip-rule="evenodd" d="M16.6077 7.44431C16.9212 7.69604 17.2107 7.97658 17.4697 8.28261C17.7286 7.97658 18.0182 7.69604 18.3317 7.44431C19.4657 6.5337 20.9133 6 22.361 6C25.7305 6 28.3392 8.6087 28.3392 11.9783C28.3392 16.1087 24.6436 19.4783 18.9914 24.4783L17.4697 26L15.9479 24.4783C10.2957 19.4783 6.6001 16.1087 6.6001 11.9783C6.6001 8.6087 9.20879 6 12.5784 6C14.026 6 15.4736 6.5337 16.6077 7.44431ZM17.4697 24.3029L18.1688 23.6038L18.1963 23.5795C21.0426 21.0616 23.3001 19.0354 24.8578 17.1402C26.4018 15.2617 27.1392 13.6508 27.1392 11.9783C27.1392 9.27144 25.0678 7.2 22.361 7.2C20.8718 7.2 19.3571 7.90978 18.3857 9.05774L17.4697 10.1404L16.5536 9.05774C15.5822 7.90978 14.0675 7.2 12.5784 7.2C9.87153 7.2 7.8001 9.27144 7.8001 11.9783C7.8001 13.6508 8.53751 15.2617 10.0815 17.1402C11.6392 19.0354 13.8968 21.0616 16.743 23.5795L16.7705 23.6038L17.4697 24.3029Z" fill="#3D4E54"/>
<circle cx="9.6001" cy="8" r="7" fill="#AEAEAE"/>
<path d="M10.8745 12H9.36572V7.86914L9.38037 7.19043L9.40479 6.44824C9.15413 6.69889 8.97998 6.86328 8.88232 6.94141L8.06201 7.60059L7.33447 6.69238L9.63428 4.86133H10.8745V12Z" fill="#F9F9F9"/>
</svg>
